<svg id="visual" viewBox="0 0 675 900" width="675" height="900" xmlns="http://www.w3.org/2000/svg" xmlns:xlink="http://www.w3.org/1999/xlink" version="1.1"><rect x="0" y="0" width="675" height="900" fill="#001220"></rect><defs><linearGradient id="grad1_0" x1="0%" y1="0%" x2="100%" y2="100%"><stop offset="30%" stop-color="#001220" stop-opacity="1"></stop><stop offset="70%" stop-color="#001220" stop-opacity="1"></stop></linearGradient></defs><defs><linearGradient id="grad2_0" x1="0%" y1="0%" x2="100%" y2="100%"><stop offset="30%" stop-color="#001220" stop-opacity="1"></stop><stop offset="70%" stop-color="#001220" stop-opacity="1"></stop></linearGradient></defs><g transform="translate(675, 0)"><path d="M0 506.3C-55.1 471.7 -110.2 437.2 -173 417.6C-235.7 397.9 -306.1 393.2 -358 358C-409.8 322.8 -443.1 257.2 -464.7 192.5C-486.3 127.8 -496.3 63.9 -506.2 0L0 0Z" fill="#FBAE3C"></path></g><g transform="translate(0, 900)"><path d="M0 -506.2C68.1 -488.5 136.2 -470.7 177.9 -429.6C219.7 -388.6 235 -324.3 286.4 -286.4C337.7 -248.5 425.1 -237.1 467.7 -193.7C510.4 -150.4 508.3 -75.2 506.3 0L0 0Z" fill="#FBAE3C"></path></g></svg>