<svg id="visual" viewBox="0 0 900 600" width="900" height="600" xmlns="http://www.w3.org/2000/svg" xmlns:xlink="http://www.w3.org/1999/xlink" version="1.1"><g stroke-width="1" stroke-linejoin="bevel"><path d="M479 308L372 421L503 406Z" fill="#19435d" stroke="#19435d"></path><path d="M372 421L474 464L503 406Z" fill="#15384f" stroke="#15384f"></path><path d="M479 308L371 285L372 421Z" fill="#0c2435" stroke="#0c2435"></path><path d="M371 285L339 301L372 421Z" fill="#112e42" stroke="#112e42"></path><path d="M298 408L367 479L372 421Z" fill="#297ea6" stroke="#297ea6"></path><path d="M372 421L367 479L474 464Z" fill="#297ea6" stroke="#297ea6"></path><path d="M339 301L298 408L372 421Z" fill="#1d4e6b" stroke="#1d4e6b"></path><path d="M479 308L419 226L371 285Z" fill="#1d4e6b" stroke="#1d4e6b"></path><path d="M371 285L268 222L339 301Z" fill="#15384f" stroke="#15384f"></path><path d="M603 510L620 394L503 406Z" fill="#205a7a" stroke="#205a7a"></path><path d="M503 406L620 394L479 308Z" fill="#0c2435" stroke="#0c2435"></path><path d="M479 308L509 183L419 226Z" fill="#277297" stroke="#277297"></path><path d="M596 210L509 183L479 308Z" fill="#112e42" stroke="#112e42"></path><path d="M620 394L637 319L479 308Z" fill="#1d4e6b" stroke="#1d4e6b"></path><path d="M479 600L603 510L474 464Z" fill="#19435d" stroke="#19435d"></path><path d="M474 464L603 510L503 406Z" fill="#112e42" stroke="#112e42"></path><path d="M620 394L671 433L637 319Z" fill="#1d4e6b" stroke="#1d4e6b"></path><path d="M298 408L290 539L367 479Z" fill="#297ea6" stroke="#297ea6"></path><path d="M367 479L408 600L474 464Z" fill="#15384f" stroke="#15384f"></path><path d="M362 125L268 222L419 226Z" fill="#1d4e6b" stroke="#1d4e6b"></path><path d="M419 226L268 222L371 285Z" fill="#00101c" stroke="#00101c"></path><path d="M339 301L204 363L298 408Z" fill="#0c2435" stroke="#0c2435"></path><path d="M298 408L173 504L290 539Z" fill="#19435d" stroke="#19435d"></path><path d="M218 270L204 363L339 301Z" fill="#1d4e6b" stroke="#1d4e6b"></path><path d="M637 319L596 210L479 308Z" fill="#112e42" stroke="#112e42"></path><path d="M290 539L408 600L367 479Z" fill="#19435d" stroke="#19435d"></path><path d="M408 600L479 600L474 464Z" fill="#081a28" stroke="#081a28"></path><path d="M268 222L218 270L339 301Z" fill="#246688" stroke="#246688"></path><path d="M603 510L671 433L620 394Z" fill="#205a7a" stroke="#205a7a"></path><path d="M268 222L231 226L218 270Z" fill="#246688" stroke="#246688"></path><path d="M177 134L231 226L268 222Z" fill="#15384f" stroke="#15384f"></path><path d="M520 117L362 125L509 183Z" fill="#1d4e6b" stroke="#1d4e6b"></path><path d="M509 183L362 125L419 226Z" fill="#112e42" stroke="#112e42"></path><path d="M637 319L684 294L596 210Z" fill="#112e42" stroke="#112e42"></path><path d="M671 433L684 294L637 319Z" fill="#205a7a" stroke="#205a7a"></path><path d="M219 600L299 600L290 539Z" fill="#297ea6" stroke="#297ea6"></path><path d="M290 539L299 600L408 600Z" fill="#277297" stroke="#277297"></path><path d="M576 70L520 117L596 210Z" fill="#19435d" stroke="#19435d"></path><path d="M596 210L520 117L509 183Z" fill="#205a7a" stroke="#205a7a"></path><path d="M400 0L330 107L362 125Z" fill="#205a7a" stroke="#205a7a"></path><path d="M362 125L330 107L268 222Z" fill="#297ea6" stroke="#297ea6"></path><path d="M98 411L173 504L204 363Z" fill="#00101c" stroke="#00101c"></path><path d="M204 363L173 504L298 408Z" fill="#277297" stroke="#277297"></path><path d="M479 600L614 600L603 510Z" fill="#15384f" stroke="#15384f"></path><path d="M603 510L724 531L671 433Z" fill="#081a28" stroke="#081a28"></path><path d="M173 504L219 600L290 539Z" fill="#19435d" stroke="#19435d"></path><path d="M231 226L130 281L218 270Z" fill="#297ea6" stroke="#297ea6"></path><path d="M218 270L130 281L204 363Z" fill="#205a7a" stroke="#205a7a"></path><path d="M94 174L130 281L231 226Z" fill="#112e42" stroke="#112e42"></path><path d="M614 600L664 600L603 510Z" fill="#1d4e6b" stroke="#1d4e6b"></path><path d="M766 331L719 209L684 294Z" fill="#081a28" stroke="#081a28"></path><path d="M766 331L684 294L671 433Z" fill="#00101c" stroke="#00101c"></path><path d="M684 294L719 209L596 210Z" fill="#19435d" stroke="#19435d"></path><path d="M664 600L724 531L603 510Z" fill="#1d4e6b" stroke="#1d4e6b"></path><path d="M677 125L576 70L596 210Z" fill="#15384f" stroke="#15384f"></path><path d="M520 117L400 0L362 125Z" fill="#15384f" stroke="#15384f"></path><path d="M830 431L766 331L671 433Z" fill="#297ea6" stroke="#297ea6"></path><path d="M130 281L98 411L204 363Z" fill="#205a7a" stroke="#205a7a"></path><path d="M173 504L88 600L219 600Z" fill="#15384f" stroke="#15384f"></path><path d="M719 209L677 125L596 210Z" fill="#19435d" stroke="#19435d"></path><path d="M330 107L177 134L268 222Z" fill="#1d4e6b" stroke="#1d4e6b"></path><path d="M515 0L400 0L520 117Z" fill="#081a28" stroke="#081a28"></path><path d="M330 107L281 0L177 134Z" fill="#15384f" stroke="#15384f"></path><path d="M586 0L515 0L576 70Z" fill="#00101c" stroke="#00101c"></path><path d="M576 70L515 0L520 117Z" fill="#277297" stroke="#277297"></path><path d="M98 411L80 524L173 504Z" fill="#15384f" stroke="#15384f"></path><path d="M177 134L94 174L231 226Z" fill="#246688" stroke="#246688"></path><path d="M0 302L0 439L98 411Z" fill="#0c2435" stroke="#0c2435"></path><path d="M98 411L0 439L80 524Z" fill="#081a28" stroke="#081a28"></path><path d="M138 92L94 174L177 134Z" fill="#112e42" stroke="#112e42"></path><path d="M719 209L781 189L677 125Z" fill="#205a7a" stroke="#205a7a"></path><path d="M675 0L586 0L576 70Z" fill="#0c2435" stroke="#0c2435"></path><path d="M766 331L781 189L719 209Z" fill="#277297" stroke="#277297"></path><path d="M794 600L813 487L724 531Z" fill="#1d4e6b" stroke="#1d4e6b"></path><path d="M724 531L813 487L671 433Z" fill="#0c2435" stroke="#0c2435"></path><path d="M766 331L900 268L781 189Z" fill="#0c2435" stroke="#0c2435"></path><path d="M400 0L281 0L330 107Z" fill="#297ea6" stroke="#297ea6"></path><path d="M675 0L576 70L677 125Z" fill="#112e42" stroke="#112e42"></path><path d="M813 487L830 431L671 433Z" fill="#1d4e6b" stroke="#1d4e6b"></path><path d="M180 0L138 92L177 134Z" fill="#15384f" stroke="#15384f"></path><path d="M80 524L88 600L173 504Z" fill="#277297" stroke="#277297"></path><path d="M664 600L794 600L724 531Z" fill="#00101c" stroke="#00101c"></path><path d="M900 537L900 382L830 431Z" fill="#205a7a" stroke="#205a7a"></path><path d="M0 302L98 411L130 281Z" fill="#277297" stroke="#277297"></path><path d="M80 524L0 600L88 600Z" fill="#19435d" stroke="#19435d"></path><path d="M0 223L130 281L94 174Z" fill="#246688" stroke="#246688"></path><path d="M0 223L0 302L130 281Z" fill="#00101c" stroke="#00101c"></path><path d="M774 76L675 0L677 125Z" fill="#297ea6" stroke="#297ea6"></path><path d="M0 439L0 491L80 524Z" fill="#081a28" stroke="#081a28"></path><path d="M281 0L180 0L177 134Z" fill="#1d4e6b" stroke="#1d4e6b"></path><path d="M0 119L0 223L94 174Z" fill="#205a7a" stroke="#205a7a"></path><path d="M900 89L774 76L781 189Z" fill="#1d4e6b" stroke="#1d4e6b"></path><path d="M781 189L774 76L677 125Z" fill="#112e42" stroke="#112e42"></path><path d="M0 119L94 174L138 92Z" fill="#15384f" stroke="#15384f"></path><path d="M900 537L830 431L813 487Z" fill="#277297" stroke="#277297"></path><path d="M830 431L900 382L766 331Z" fill="#205a7a" stroke="#205a7a"></path><path d="M900 382L900 268L766 331Z" fill="#205a7a" stroke="#205a7a"></path><path d="M900 268L900 228L781 189Z" fill="#081a28" stroke="#081a28"></path><path d="M0 491L0 600L80 524Z" fill="#205a7a" stroke="#205a7a"></path><path d="M794 600L900 537L813 487Z" fill="#246688" stroke="#246688"></path><path d="M88 0L0 119L138 92Z" fill="#0c2435" stroke="#0c2435"></path><path d="M180 0L88 0L138 92Z" fill="#1d4e6b" stroke="#1d4e6b"></path><path d="M794 600L900 600L900 537Z" fill="#1d4e6b" stroke="#1d4e6b"></path><path d="M900 228L900 89L781 189Z" fill="#081a28" stroke="#081a28"></path><path d="M774 76L833 0L675 0Z" fill="#081a28" stroke="#081a28"></path><path d="M900 89L833 0L774 76Z" fill="#246688" stroke="#246688"></path><path d="M88 0L0 0L0 119Z" fill="#15384f" stroke="#15384f"></path><path d="M900 89L900 0L833 0Z" fill="#277297" stroke="#277297"></path></g></svg>