<svg id="visual" viewBox="0 0 675 900" width="675" height="900" xmlns="http://www.w3.org/2000/svg" xmlns:xlink="http://www.w3.org/1999/xlink" version="1.1"><path d="M0 334L61 388L123 154L184 172L245 316L307 325L368 334L430 343L491 325L552 280L614 226L675 136L675 0L614 0L552 0L491 0L430 0L368 0L307 0L245 0L184 0L123 0L61 0L0 0Z" fill="#00cc8e"></path><path d="M0 451L61 451L123 262L184 235L245 433L307 478L368 406L430 496L491 424L552 388L614 316L675 289L675 134L614 224L552 278L491 323L430 341L368 332L307 323L245 314L184 170L123 152L61 386L0 332Z" fill="#00b98a"></path><path d="M0 559L61 595L123 433L184 442L245 622L307 676L368 604L430 649L491 649L552 487L614 559L675 469L675 287L614 314L552 386L491 422L430 494L368 404L307 476L245 431L184 233L123 260L61 449L0 449Z" fill="#00a784"></path><path d="M0 820L61 784L123 784L184 838L245 811L307 847L368 838L430 784L491 820L552 712L614 820L675 784L675 467L614 557L552 485L491 647L430 647L368 602L307 674L245 620L184 440L123 431L61 593L0 557Z" fill="#00957c"></path><path d="M0 901L61 901L123 901L184 901L245 901L307 901L368 901L430 901L491 901L552 901L614 901L675 901L675 782L614 818L552 710L491 818L430 782L368 836L307 845L245 809L184 836L123 782L61 782L0 818Z" fill="#038373"></path></svg>